<?xml version="1.0" encoding="utf-8"?>
<!-- Generator: Adobe Illustrator 20.1.0, SVG Export Plug-In . SVG Version: 6.00 Build 0)  -->
<svg version="1.1" id="Слой_1" xmlns="http://www.w3.org/2000/svg" xmlns:xlink="http://www.w3.org/1999/xlink" x="0px" y="0px"
	 viewBox="0 0 200 60" style="enable-background:new 0 0 200 60;" xml:space="preserve">
<style type="text/css">
	.st0{fill:#FFFFFF;}
</style>
<g>
	<path class="st0" d="M22.6,48.5c0,0.9-0.3,1.6-0.8,2.2c-0.6,0.6-1.3,0.8-2.2,0.8H5.4V8.7h14c0.9,0,1.6,0.3,2.2,0.8
		c0.6,0.6,0.8,1.3,0.8,2.2v12.7c0,1.1-0.5,2.1-1.5,2.8c-1,0.6-2,1.2-3,1.8l3.2,2.1c0.9,0.6,1.4,1.5,1.4,2.7V48.5z M18.6,24.9V12.1
		H9.2v15.4h5.6L18.6,24.9z M18.7,48.1V33.3l-3.9-2.5H9.2v17.3H18.7z"/>
	<path class="st0" d="M43.3,51.5H29.2V8.7h13.9v3.4H33v16h9.2v3.4H33v16.7h10.3V51.5z"/>
	<path class="st0" d="M74.8,8.7L69,51.6h-3.1l-4.6-32.3c0-0.6-0.1-1.4-0.1-2.5c0,0.6,0,1.4-0.1,2.5l-4.6,32.3h-3.1L47.4,8.7h3.8
		l3.6,30.9c0,0.7,0.1,1.7,0.1,3.1c0-0.7,0-1.7,0.1-3.1l4.4-30.9h3.3l4.4,30.9c0,0.7,0.1,1.7,0.1,3.1c0-0.7,0-1.7,0.1-3.1L71,8.7
		H74.8z"/>
	<path class="st0" d="M97.1,51.5h-3.8L91.9,42h-8.5l-1.5,9.5h-3.7v-0.1l7.6-42.8h3.7L97.1,51.5z M91.4,38.6l-3.7-23.2l-3.8,23.2
		H91.4z"/>
	<path class="st0" d="M120.5,51.5h-4l-8-22.9l0.5-0.8h6.8V12.1h-9.8v39.4h-3.8V8.7h14.3c0.9,0,1.6,0.3,2.2,0.8
		c0.6,0.6,0.8,1.3,0.8,2.2V28c0,2.1-1.4,3.1-4.2,3.1c-0.3,0-0.7,0-1.2,0c-0.5,0-0.9,0-1.1,0C115.6,37.8,118,44.6,120.5,51.5z"/>
	<path class="st0" d="M140.2,51.5h-14.1V8.7h13.9v3.4H130v16h9.2v3.4H130v16.7h10.3V51.5z"/>
</g>
<g>
	<path class="st0" d="M145.4,51.5h-1.6v-1.9h1.6V51.5z"/>
	<path class="st0" d="M153.4,50.3c0,0.8-0.4,1.2-1.2,1.2h-3.4c-0.8,0-1.2-0.4-1.2-1.2v-8c0-0.8,0.4-1.2,1.2-1.2h3.4
		c0.8,0,1.2,0.4,1.2,1.2v2.1H152v-2h-3v7.9h3v-2.3h1.4V50.3z"/>
	<path class="st0" d="M161.7,50.3c0,0.8-0.4,1.2-1.2,1.2h-3.6c-0.8,0-1.2-0.4-1.2-1.2v-8c0-0.8,0.4-1.2,1.2-1.2h3.6
		c0.8,0,1.2,0.4,1.2,1.2V50.3z M160.3,50.2v-7.9h-3.1v7.9H160.3z"/>
	<path class="st0" d="M174.5,51.5h-1.4v-9.2l-3.1,0.1v9.1h-1.4v-9.2l-3.1,0.1v9.1H164V41h1.4v0.3c0.6-0.1,1.1-0.1,1.7-0.2
		c0.7-0.1,1.2-0.1,1.7-0.1c0.4,0,0.8,0.1,1,0.4c0.6-0.1,1.2-0.2,1.8-0.2c0.8-0.1,1.4-0.2,1.8-0.2c0.8,0,1.2,0.4,1.2,1.2V51.5z"/>
	<path class="st0" d="M178.3,51.5h-1.6v-1.9h1.6V51.5z"/>
	<path class="st0" d="M186.5,51.5h-1.4v-0.3c-0.6,0.1-1.1,0.2-1.7,0.2c-0.7,0.1-1.3,0.1-1.7,0.1c-0.8,0-1.2-0.4-1.2-1.2V41h1.4v9.2
		l3.2-0.1V41h1.4V51.5z"/>
	<path class="st0" d="M194.7,51.5h-1.4v-0.3c-0.6,0.1-1.1,0.2-1.7,0.2c-0.7,0.1-1.3,0.1-1.7,0.1c-0.8,0-1.2-0.4-1.2-1.2v-3.8
		c0-0.8,0.4-1.2,1.2-1.2h3.4v-3.1h-3.1V44h-1.4v-1.8c0-0.8,0.4-1.2,1.2-1.2h3.4c0.8,0,1.2,0.4,1.2,1.2V51.5z M193.3,50.2v-3.7h-3.2
		v3.8L193.3,50.2z"/>
</g>
</svg>
