<?xml version="1.0" encoding="utf-8"?>
<!-- Generator: Adobe Illustrator 20.1.0, SVG Export Plug-In . SVG Version: 6.00 Build 0)  -->
<svg version="1.1" id="Capa_1" xmlns="http://www.w3.org/2000/svg" xmlns:xlink="http://www.w3.org/1999/xlink" x="0px" y="0px"
	 viewBox="0 0 136.5 136.5" style="enable-background:new 0 0 136.5 136.5;" xml:space="preserve">
<style type="text/css">
	.st0{fill:#FFFFFF;}
	.st1{filter:url(#Adobe_OpacityMaskFilter);}
	.st2{mask:url(#SVGID_1_);}
	.st3{filter:url(#Adobe_OpacityMaskFilter_1_);}
	.st4{fill:none;stroke:#FFFFFF;stroke-miterlimit:10;}
	.st5{display:none;fill:#218588;}
	.st6{display:none;fill:#434849;}
</style>
<g>
	<g>
		<g>
			<path class="st0" d="M40.2,33.2c0,0-2.3-3.5-8.2-3.1c-5.9,0.4-2.3-8.6,4.1-7.4C42.6,23.8,39.5,28.9,40.2,33.2z"/>
			<path class="st0" d="M40.9,22.5c0,0,0.1-2.7-3-4.6c-3.1-2,2-5.2,4.8-2.3C45.5,18.6,42.1,20,40.9,22.5z"/>
			<path class="st0" d="M42.2,33.2c0,0,2.3-3.5,8.2-3.1c5.9,0.4,2.3-8.6-4.1-7.4C39.9,23.8,43,28.9,42.2,33.2z"/>
		</g>
		<defs>
			<filter id="Adobe_OpacityMaskFilter" filterUnits="userSpaceOnUse" x="1" y="37.5" width="134.5" height="81.2">
				<feFlood  style="flood-color:white;flood-opacity:1" result="back"/>
				<feBlend  in="SourceGraphic" in2="back" mode="normal"/>
			</filter>
		</defs>
		<mask maskUnits="userSpaceOnUse" x="1" y="37.5" width="134.5" height="81.2" id="SVGID_1_">
			<g class="st1">
				<path d="M1,80.2c0,0,14,5.5,24.4-1c5.9-3.7,5.4,22.6,22.6,27.3c17.2,4.6,45.8-2.3,62.9-19.8c0,0-36.2,52.6-89.5,28.2
					C21.4,114.9,1.8,106.5,1,80.2z"/>
			</g>
		</mask>
		<g class="st2">
			<path class="st0" d="M80.1,65.1c0,0,4.9,23.4,23.2,14.9c0,0-7.6-7.2-4.4-11.5c3.2-4.3,15.7-17,15.7-17s10.2,10.4,1.2,20.3
				c0,0,9-7.6,19.7,1.1c0,0-14.8,22.6-24.5,13.7c0,0-17.5,27.5-59.4,30.8"/>
			<defs>
				<filter id="Adobe_OpacityMaskFilter_1_" filterUnits="userSpaceOnUse" x="1" y="37.5" width="81.2" height="81.2">
					<feFlood  style="flood-color:white;flood-opacity:1" result="back"/>
					<feBlend  in="SourceGraphic" in2="back" mode="normal"/>
				</filter>
			</defs>
			<mask maskUnits="userSpaceOnUse" x="1" y="37.5" width="81.2" height="81.2" id="SVGID_1_">
				<g class="st3">
					<circle cx="18.1" cy="64.4" r="3.8"/>
					<path d="M35.8,77.9c0,3.1,0.4,6.2,1.3,9.2c0.2,0.7,0.5,1.5,0.8,2.2c0.3,0.7,0.6,1.4,1,2.1l0.6,1l0.7,0.9l0.7,0.9
						c0.2,0.3,0.5,0.5,0.8,0.8c0.5,0.5,1.1,1,1.8,1.4c0.3,0.2,0.6,0.4,1,0.6c0.3,0.2,0.7,0.4,1,0.5c0.7,0.3,1.4,0.5,2.1,0.8
						c0.7,0.2,1.5,0.4,2.2,0.4l1.1,0.1l1.1,0c0.8,0.1,1.5-0.1,2.3-0.1c0.8-0.1,1.5-0.2,2.3-0.3l2.3-0.4L58.5,98
						c0.2-0.3,0.4-0.7,0.5-1c0.1-0.4,0.3-0.7,0.4-1.1c0.1-0.4,0.1-0.8,0.2-1.2c0-0.4,0.1-0.8,0.1-1.2c0-0.4,0-0.8,0-1.2L59.6,91
						l-0.2-1.2c-0.1-0.4-0.2-0.8-0.3-1.2c-0.1-0.4-0.2-0.8-0.3-1.2l-0.4-1.2c-0.1-0.4-0.3-0.8-0.5-1.2c-0.2-0.4-0.3-0.8-0.5-1.1
						c-0.4-0.7-0.7-1.5-1.1-2.2L55,79.5l1.4,2.1c0.4,0.7,0.9,1.4,1.3,2.2c0.2,0.4,0.4,0.8,0.6,1.1c0.2,0.4,0.4,0.7,0.5,1.1l0.5,1.2
						c0.2,0.4,0.3,0.8,0.4,1.2c0.1,0.4,0.3,0.8,0.3,1.2l0.3,1.3l0.2,1.3c0,0.4,0,0.9,0.1,1.3c0,0.4,0,0.9-0.1,1.3
						c-0.1,0.4-0.1,0.9-0.2,1.3c-0.1,0.4-0.2,0.8-0.4,1.3c-0.2,0.4-0.3,0.8-0.6,1.2l-0.1,0.1l-0.2,0l-2.3,0.5
						c-0.8,0.1-1.6,0.2-2.3,0.3c-0.8,0-1.6,0.1-2.4,0.1l-1.2,0c-0.4,0-0.8-0.1-1.2-0.1c-0.8-0.1-1.6-0.3-2.4-0.5
						c-0.8-0.2-1.5-0.5-2.3-0.8c-0.4-0.1-0.7-0.3-1.1-0.5c-0.4-0.2-0.7-0.4-1-0.6c-0.7-0.4-1.3-1-1.9-1.5c-0.3-0.3-0.6-0.6-0.8-0.9
						l-0.7-0.9l-0.7-1l-0.6-1c-0.4-0.7-0.7-1.4-1-2.2c-0.3-0.7-0.5-1.5-0.7-2.3c-0.2-0.8-0.4-1.5-0.5-2.3c-0.1-0.8-0.2-1.6-0.3-2.3
						C35.7,81,35.7,79.4,35.8,77.9z"/>
				</g>
			</mask>
			<circle class="st0" cx="41.6" cy="78.1" r="40.6"/>
		</g>
		<path class="st4" d="M1.1,80.2c0,0,14,5.5,24.4-1c5.9-3.7,5.4,22.6,22.6,27.3c17.2,4.6,45.8-2.3,62.9-19.8
			c0,0-36.2,52.6-89.5,28.2C21.5,114.9,1.9,106.5,1.1,80.2z"/>
	</g>
	<path class="st5" d="M35.3,77.8c0,3.2,0.4,6.3,1.3,9.3c0.2,0.7,0.5,1.5,0.8,2.2c0.3,0.7,0.6,1.4,1,2.1l0.6,1l0.7,0.9l0.7,0.9
		c0.3,0.3,0.5,0.6,0.8,0.8c0.6,0.5,1.1,1,1.8,1.4c0.3,0.2,0.6,0.4,1,0.6c0.3,0.2,0.7,0.4,1,0.5c0.7,0.3,1.4,0.5,2.2,0.8
		c0.7,0.2,1.5,0.4,2.3,0.4l1.1,0.1l1.2,0c0.8,0.1,1.5-0.1,2.3-0.1c0.8-0.1,1.5-0.2,2.3-0.3l2.3-0.4l-0.3,0.2c0.2-0.3,0.4-0.7,0.5-1
		c0.1-0.4,0.3-0.8,0.4-1.2c0.1-0.4,0.1-0.8,0.2-1.2c0-0.4,0.1-0.8,0.1-1.2c0-0.4,0-0.8,0-1.2l-0.1-1.2L59.2,90
		c-0.1-0.4-0.2-0.8-0.3-1.2c-0.1-0.4-0.2-0.8-0.4-1.2l-0.4-1.2c-0.1-0.4-0.3-0.8-0.5-1.2c-0.2-0.4-0.3-0.8-0.5-1.2
		c-0.4-0.8-0.7-1.5-1.2-2.3l-1.3-2.2l1.4,2.1c0.4,0.7,0.9,1.5,1.3,2.2c0.2,0.4,0.4,0.8,0.6,1.1c0.2,0.4,0.4,0.8,0.5,1.2l0.5,1.2
		c0.2,0.4,0.3,0.8,0.4,1.2c0.1,0.4,0.3,0.8,0.3,1.2l0.3,1.3l0.2,1.3c0,0.4,0,0.9,0.1,1.3c0,0.4,0,0.9-0.1,1.3
		c-0.1,0.4-0.1,0.9-0.2,1.3c-0.1,0.4-0.2,0.9-0.4,1.3c-0.2,0.4-0.3,0.8-0.6,1.2L58.9,99l-0.2,0l-2.3,0.5c-0.8,0.1-1.6,0.2-2.4,0.3
		c-0.8,0-1.6,0.1-2.4,0.1l-1.2,0c-0.4,0-0.8-0.1-1.2-0.1c-0.8-0.1-1.6-0.3-2.4-0.5c-0.8-0.2-1.6-0.5-2.3-0.8
		c-0.4-0.1-0.7-0.4-1.1-0.6c-0.4-0.2-0.7-0.4-1-0.6c-0.7-0.5-1.3-1-1.9-1.6c-0.3-0.3-0.6-0.6-0.8-0.9l-0.8-1l-0.7-1l-0.6-1.1
		c-0.4-0.7-0.7-1.5-1-2.2c-0.3-0.8-0.5-1.5-0.7-2.3c-0.2-0.8-0.4-1.6-0.5-2.3c-0.1-0.8-0.2-1.6-0.3-2.4C35.1,81,35.1,79.4,35.3,77.8
		z"/>
	<g>
		<circle class="st6" cx="17.3" cy="64.2" r="3.8"/>
		<circle class="st0" cx="19.5" cy="63.7" r="1.4"/>
	</g>
</g>
</svg>
